<?xml version="1.0" encoding="UTF-8" standalone="no"?>
<!DOCTYPE svg PUBLIC "-//W3C//DTD SVG 1.1//EN" "http://www.w3.org/Graphics/SVG/1.1/DTD/svg11.dtd">
<svg width="100%" height="100%" viewBox="0 0 400 400" version="1.1" xmlns="http://www.w3.org/2000/svg" xmlns:xlink="http://www.w3.org/1999/xlink" xml:space="preserve" xmlns:serif="http://www.serif.com/" style="fill-rule:evenodd;clip-rule:evenodd;stroke-linejoin:round;stroke-miterlimit:2;">
    <g transform="matrix(0.226246,0.204978,-0.204978,0.226246,187.13,-231.758)">
        <g>
            <path d="M1227,696L1227,716L1270,716L1270,738L1288.5,738L1290,739.5L1290,755.5C1290,755.87 1288.61,756.96 1289,758C1290.65,759.65 1307.31,755.8 1310,759.5L1310,778L1332,778L1332,820L1352,820L1352,840L1372,840L1372,902L1475,902L1475,880L1556,880L1556,902L1638,902L1638,942L1556,942L1556,962L1475,962L1475,942L1392,942L1392,1106L1475,1106L1475,1086L1556,1086L1556,1106L1720,1106L1720,1147L1556,1147L1556,1166.5L1554.5,1168L1477.5,1168C1477.32,1168 1475,1165.68 1475,1165.5L1475,1147L1372,1147L1372,1228L1352,1228L1351.53,1249.04C1350.07,1250.6 1336.35,1249.95 1333.45,1249.24L1331.99,1250.5L1331.99,1270L1309.99,1270L1309.99,1290L1291.49,1290C1291.28,1290 1290.36,1288.51 1290,1289L1290,1310L1269.99,1310L1269.99,1329.5L1268.49,1331L1227.99,1331L1227.99,1351C1227.01,1350.68 1225.82,1352 1225.49,1352L1065.49,1352L1063.99,1350.5L1063.99,1331L1043.99,1331L1043.99,1310L451,1310L451,1290L410,1290L410,1270L368,1270L368,1250L348,1250L348,1228L328,1228L328,1208L308,1208L308,1168L287.5,1168L286.22,1166.5C286.19,1166.09 287,1165.75 287,1165.5L287,1126L266,1126L266,1088.5C266,1087.89 265.2,1086.97 266,1086L250.5,1086C249.15,1086 246.85,1085.79 246,1084.5L246,962L266,962L266,923.5C266,923.2 264.73,922.73 265,922L287,922L287,880L308,880L308,840L328,840L328,820L348,820L348,798L368,798L368,778L410,778L410,758L451,758L451,738L1024,738L1024,716L1064,716L1064,696L1227,696ZM1228,840C1227.96,826.02 1228.03,811.98 1228,798L1208,798L1208,758L1188,758L1188,738L1168,738L1168,716L1106,716L1106,736.5L1104.5,738L1064,738L1064,758L1166.5,758L1168,759.5L1168,778L1188,778C1188.03,784.65 1187.97,791.35 1188,798C1154.03,797.54 1119.97,798.34 1086,798L1086,819L1064,819L1064,840L942,840L942,819L840,819L840,880L860,880L860,902L880,902L880,922L922,922L922,962L942,962L942,983L902,983C902.08,1023.98 901.89,1065.02 902,1106C894.68,1106.04 887.32,1105.97 880,1106L880,1126L860,1126L860,1166.5L858.5,1168L840,1168L840,1228L1064,1228L1064,1248.5L1067.45,1250.05C1107.63,1249.8 1147.83,1250.21 1188,1250C1187.91,1256.31 1189.25,1264.75 1186.5,1270L1168,1270L1168,1288.5L1064,1290L1064,1310L1104.5,1310L1106,1311.5L1106,1331L1168,1331C1168.58,1329.6 1167,1328 1167,1327.5L1167,1311.5L1168.5,1310L1188,1310L1188,1290L1208,1290C1208.04,1276.68 1207.95,1263.32 1208,1250C1214.09,1249.98 1220.22,1250 1226.31,1250.04C1226.97,1249.84 1228,1247.78 1228,1247.5L1228,1228L1250,1228C1250.02,1201.02 1249.98,1173.98 1250,1147C1256.65,1146.96 1263.35,1147.03 1270,1147L1270,903.5C1270,903.29 1271.5,902.37 1271,902.01C1264.01,901.97 1256.99,902.03 1250,902C1249.97,881.35 1250.02,860.65 1250,839.99C1242.68,839.97 1235.31,840.03 1227.99,839.99L1228,840ZM1310,819C1309.27,818.73 1308.8,820 1308.5,820L1272.5,820C1272.25,820 1271.91,819.19 1271.5,819.22L1270,820.5L1270,840L1290,840L1290,939.5C1290,939.81 1288.63,940.92 1289,942L1310,942L1310,1106L1289,1106L1290,1208L1270,1208L1270,1248.5L1271.5,1250L1310,1250L1310,1208L1332,1208L1332,1147L1310,1147L1310,1126L1332,1126L1332,1106L1352,1106L1352,942L1332,942L1332,922L1311.5,922L1310,920.5L1310,902L1332,902L1332,840L1311.5,840L1310,838.5L1310,819Z" style="fill:white;fill-rule:nonzero;"/>
            <path d="M1188,798C1194.31,798.09 1202.75,796.75 1208,799.5L1208,840C1214.65,840.03 1221.35,839.96 1228,840C1228.06,860.65 1227.96,881.35 1228,902.01C1235.32,902.02 1242.68,901.98 1250.01,902.01C1250.13,983.66 1250.08,1065.36 1250.01,1147.01C1242.69,1147.05 1235.32,1146.98 1228,1147.01L1228,1208.02L1208.01,1208.02C1207.97,1222 1208.06,1236.04 1208.01,1250.02C1201.55,1250.04 1194.74,1249.98 1188.01,1250.02C1188.2,1236.04 1187.87,1222 1188.01,1208.02L1106.01,1208.02L1106.01,1086.02L1064.01,1086.02L1064.01,1106.02L1003.01,1106.02L1003.01,1126.02L962.01,1126.02L962.01,1147.02L902.01,1147.02C901.96,1133.38 902.05,1119.57 902.01,1106.02C908.66,1105.98 915.36,1106.05 922.01,1106.02L922.01,1086.02L940.33,1085.89L942.01,1084.52L942.01,1065.02L983.01,1065.02L983.06,1045.07L1004.01,1045.02L1004.01,1024.02L1044.01,1024.02L1044.01,984.02L1086.01,984.02L1086.01,942.02L1106.01,942.02L1106.01,880.02L1126.01,880.02L1126.01,860.02L1148.01,860.02L1148.01,840.02L1186.51,840.02C1187.94,839.14 1187.89,838.03 1188.06,836.57C1189.33,825.74 1188.06,809.48 1188.01,798.02L1188,798ZM1188,902L1168,902L1168,922L1188,922L1188,902ZM1188,1126L1168,1126L1168,1147L1188,1147L1188,1126Z" style="fill:white;fill-rule:nonzero;"/>
        </g>
    </g>
</svg>
