<?xml version="1.0" encoding="UTF-8" standalone="no"?>
<!DOCTYPE svg PUBLIC "-//W3C//DTD SVG 1.1//EN" "http://www.w3.org/Graphics/SVG/1.1/DTD/svg11.dtd">
<svg width="100%" height="100%" viewBox="0 0 1440 1440" version="1.1" xmlns="http://www.w3.org/2000/svg" xmlns:xlink="http://www.w3.org/1999/xlink" xml:space="preserve" xmlns:serif="http://www.serif.com/" style="fill-rule:evenodd;clip-rule:evenodd;stroke-linejoin:round;stroke-miterlimit:2;">
    <g transform="matrix(1.37096,0,0,1.37096,-596.464,-36.9726)">
        <path d="M1006.23,886.6C1006.99,889.08 1005.2,889.32 1004.71,890.37C998.24,904.15 994.38,907.86 981.13,915.23C980.08,915.81 978.87,918.02 978.09,918.24C973.13,919.65 965.22,923.59 961.35,924.27C958.62,924.75 955.05,923.86 952.22,924.27C951.62,924.36 949.91,926.65 946.13,925.78C945.53,925.64 945.17,924.36 944.61,924.27C942.24,923.92 939.33,924.65 937,924.27C936.43,924.18 936.07,922.89 935.48,922.76C929.37,921.5 926.14,920.87 920.26,918.24C908.81,913.12 899.54,903.89 893.63,893.38C892.41,891.21 890.22,889.16 890.59,886.6L597.68,886.6C596.46,884.3 594.39,885.56 593.12,885.09C592.56,884.89 587.63,882.46 587.03,882.08C583.64,879.86 580.7,875.26 578.66,872.29C578.79,867.52 576.21,863.89 577.14,858.73C577.24,858.17 578.48,857.84 578.66,857.22C578.94,856.26 578.35,855.05 578.66,854.21C579.17,852.84 581.91,850.33 581.7,848.18C583.13,847.39 587.99,843.06 588.55,842.91C590.05,842.49 591.86,843.66 593.11,841.4L888.3,841.4C891.23,839.98 890.04,837.32 890.58,836.13C896.62,822.87 909.35,812.16 921.77,805.24C926.93,803.55 931.59,803.18 936.99,802.23C937.57,802.13 937.95,800.79 938.51,800.72C943.15,800.15 955.3,800.07 959.81,800.72C960.37,800.8 960.74,802.11 961.33,802.23C972.3,804.4 981.05,807.51 990.24,814.28C994.68,817.55 1003.82,830.88 1006.22,836.13C1006.76,837.32 1005.57,839.99 1008.5,841.4L1328.03,841.4C1328.59,841.52 1328.9,842.65 1329.55,842.91C1333.43,844.43 1336.99,846.04 1339.44,849.69C1339.66,850.01 1339.2,850.8 1339.44,851.2C1340.02,852.17 1342.38,855.23 1342.48,855.72C1342.93,857.8 1342.94,870.25 1342.48,872.3C1342.36,872.84 1341.26,873.15 1340.96,873.81C1340.75,874.28 1341.15,874.99 1340.96,875.32C1340.36,876.32 1333.6,883.01 1332.59,883.61C1332.26,883.8 1331.54,883.4 1331.07,883.61C1330.42,883.9 1330.11,884.96 1329.55,885.12C1327.5,885.68 1324.87,884.08 1323.46,886.63L1023.71,886.63C1020.98,882.73 1016.21,886.41 1014.58,886.63C1011.96,886.98 1008.91,886.39 1006.21,886.63L1006.23,886.6Z" style="fill:rgb(254,254,254);fill-rule:nonzero;"/>
    </g>
    <g transform="matrix(0.36017,0,0,0.36017,354.107,-47.0581)">
        <g>
            <path d="M1541.44,283.55C1584.96,328.32 1564.02,408.84 1568.98,465.48C1561.67,532.5 1523.46,559.64 1458.56,562.02C1433.63,562.94 1401.05,563.62 1376.46,562.03C1362.76,561.15 1349.95,557.94 1349.96,541.53C1353.03,455.28 1346.02,366.37 1349.97,280.43C1350.7,264.61 1353.79,258.07 1370.49,254.98C1424.9,259.28 1499.25,240.14 1541.44,283.54L1541.44,283.55ZM1463.5,308C1447.1,306.51 1428.62,309.11 1412,308L1412,506.5L1413.5,508L1462.5,508C1496.45,508 1506.44,479.11 1508.04,450.54C1509.5,424.39 1509.32,388.8 1508.04,362.46C1506.55,331.64 1497.07,311.06 1463.5,308Z" style="fill:white;fill-rule:nonzero;"/>
            <path d="M1298.5,509C1307.16,510.22 1314.14,520.25 1314.99,528.51C1316.51,543.38 1313.28,558.09 1297.05,561.55L1134.46,562.04C1121.16,561.04 1110.82,555.78 1108.96,541.54L1108.96,275.46C1109.99,261.55 1115.87,258.43 1128.59,255.09L1299.45,255.06C1314.88,259.78 1315.23,274.6 1314.05,288.55C1313.62,293.68 1309.46,300.75 1305.52,304.02C1304.76,304.65 1298.91,308 1298.5,308L1171.5,308L1170,309.5L1170,380.5L1171.5,382L1246.5,382C1251.46,382 1259.21,393.72 1259.94,398.56C1262.07,412.66 1259.04,427.56 1242.54,429.04C1222.45,430.84 1199.08,428.23 1178.46,428.95C1175.47,429.06 1173.12,430.5 1170,429L1170,509L1298.5,509Z" style="fill:white;fill-rule:nonzero;"/>
        </g>
        <g>
            <path d="M584.01,484L586.11,482.61C593.65,452.29 602.6,422.33 610.72,392.21C616.05,372.43 619.78,349.13 626.72,330.21C628.02,326.68 630.63,321.17 633.76,319.04C643.94,312.14 666.44,311.09 677.18,317.1C685.06,321.51 691.07,348.55 693.71,357.78C704.87,396.64 714.91,435.97 725.53,474.96C725.78,475.86 726.69,487.03 728.99,484C728.93,482.3 728.96,480.61 729.44,478.95C750.58,406.99 773.18,335.38 795.13,263.64C806.88,243.89 853.06,257.56 853.46,278.48C853.62,286.93 845.09,304.81 842.27,313.77C822.09,377.96 800.07,441.36 778.7,505.2C773.81,519.81 769.57,548.02 756.32,556.82C740.23,567.5 699.9,567.33 690.5,546.97L655.99,424.99C651.03,438.27 649.27,452.46 645.51,466.02C642.45,477.03 638.36,487.78 635.26,498.77C631.35,512.6 626.3,544.76 616.45,553.96C600.14,569.17 555.63,567.61 546.49,543.98C525.85,482.8 505.35,421.52 485.24,360.23C477.7,337.24 465.6,308.9 460.44,286.03C458.83,278.88 458.12,275.33 462.54,269.06C472.32,255.17 508.06,245.9 517.38,264.1C535.75,323.1 554.4,382.06 572.27,441.21C576.54,455.34 580.8,469.63 583.99,484L584.01,484Z" style="fill:white;fill-rule:nonzero;"/>
            <path d="M1059.5,508C1081.69,511.12 1082.9,559.67 1058.05,561.55C1010.07,559.43 956.92,565.94 909.51,561.98C896.92,560.93 886.52,555.01 884.95,541.54L885.23,270.74C888.02,254.07 914.29,252.25 927.43,255.07C933.58,256.39 946,264.53 946,271.5L946,506.5L947.5,508L1059.5,508Z" style="fill:white;fill-rule:nonzero;"/>
        </g>
    </g>
    <g transform="matrix(2,0,0,2,-280.68,56.2826)">
        <g transform="matrix(-0.169579,0.166208,-0.166208,-0.169579,843.924,322.061)">
            <path d="M1227,696L1227,716L1270,716L1270,738L1288.5,738L1290,739.5L1290,755.5C1290,755.87 1288.61,756.96 1289,758C1290.65,759.65 1307.31,755.8 1310,759.5L1310,778L1332,778L1332,820L1352,820L1352,840L1372,840L1372,902L1475,902L1475,880L1556,880L1556,902L1638,902L1638,942L1556,942L1556,962L1475,962L1475,942L1392,942L1392,1106L1475,1106L1475,1086L1556,1086L1556,1106L1720,1106L1720,1147L1556,1147L1556,1166.5L1554.5,1168L1477.5,1168C1477.32,1168 1475,1165.68 1475,1165.5L1475,1147L1372,1147L1372,1228L1352,1228L1351.53,1249.04C1350.07,1250.6 1336.35,1249.95 1333.45,1249.24L1331.99,1250.5L1331.99,1270L1309.99,1270L1309.99,1290L1291.49,1290C1291.28,1290 1290.36,1288.51 1290,1289L1290,1310L1269.99,1310L1269.99,1329.5L1268.49,1331L1227.99,1331L1227.99,1351C1227.01,1350.68 1225.82,1352 1225.49,1352L1065.49,1352L1063.99,1350.5L1063.99,1331L1043.99,1331L1043.99,1310L451,1310L451,1290L410,1290L410,1270L368,1270L368,1250L348,1250L348,1228L328,1228L328,1208L308,1208L308,1168L287.5,1168L286.22,1166.5C286.19,1166.09 287,1165.75 287,1165.5L287,1126L266,1126L266,1088.5C266,1087.89 265.2,1086.97 266,1086L250.5,1086C249.15,1086 246.85,1085.79 246,1084.5L246,962L266,962L266,923.5C266,923.2 264.73,922.73 265,922L287,922L287,880L308,880L308,840L328,840L328,820L348,820L348,798L368,798L368,778L410,778L410,758L451,758L451,738L1024,738L1024,716L1064,716L1064,696L1227,696ZM1188,798C1194.31,798.09 1202.75,796.75 1208,799.5L1208,840C1214.65,840.03 1221.35,839.96 1228,840L1227.99,839.99L1228,839.99C1227.96,826.013 1228.03,811.977 1228,798L1208,798L1208,758L1188,758L1188,738L1168,738L1168,716L1106,716L1106,736.5L1104.5,738L1064,738L1064,758L1166.5,758L1168,759.5L1168,778L1188,778C1188.03,784.65 1187.97,791.35 1188,798ZM1228,840C1228.06,860.65 1227.96,881.35 1228,902.01C1235.32,902.02 1242.68,901.98 1250.01,902.01C1250.13,983.657 1250.08,1065.35 1250.01,1147C1256.66,1146.96 1263.35,1147.03 1270,1147L1270,903.5C1270,903.29 1271.5,902.37 1271,902.01C1264.01,901.97 1256.99,902.03 1250,902C1249.97,881.35 1250.02,860.65 1250,839.99C1242.68,839.97 1235.32,840.03 1228,839.99L1228,840ZM1188,798C1154.03,797.54 1119.97,798.34 1086,798L1086,819L1064,819L1064,840L942,840L942,819L840,819L840,880L860,880L860,902L880,902L880,922L922,922L922,962L942,962L942,983L902,983C902.08,1023.98 901.89,1065.02 902,1106C894.68,1106.04 887.32,1105.97 880,1106L880,1126L860,1126L860,1166.5L858.5,1168L840,1168L840,1228L1064,1228L1064,1248.5L1067.45,1250.05C1107.63,1249.8 1147.83,1250.21 1188,1250C1187.91,1256.31 1189.25,1264.75 1186.5,1270L1168,1270L1168,1288.5L1064,1290L1064,1310L1104.5,1310L1106,1311.5L1106,1331L1168,1331C1168.58,1329.6 1167,1328 1167,1327.5L1167,1311.5L1168.5,1310L1188,1310L1188,1290L1208,1290C1208.04,1276.69 1207.95,1263.33 1208,1250.02C1201.54,1250.04 1194.74,1249.98 1188.01,1250.02C1188.2,1236.04 1187.87,1222 1188.01,1208.02L1106.01,1208.02L1106.01,1086.02L1064.01,1086.02L1064.01,1106.02L1003.01,1106.02L1003.01,1126.02L962.01,1126.02L962.01,1147.02L902.01,1147.02C901.96,1133.38 902.05,1119.57 902.01,1106.02C908.66,1105.98 915.36,1106.05 922.01,1106.02L922.01,1086.02L940.33,1085.89L942.01,1084.52L942.01,1065.02L983.01,1065.02L983.06,1045.07L1004.01,1045.02L1004.01,1024.02L1044.01,1024.02L1044.01,984.02L1086.01,984.02L1086.01,942.02L1106.01,942.02L1106.01,880.02L1126.01,880.02L1126.01,860.02L1148.01,860.02L1148.01,840.02L1186.51,840.02C1187.94,839.14 1187.89,838.03 1188.06,836.57C1189.33,825.74 1188.06,809.48 1188.01,798.02L1188,798ZM1310,819C1309.27,818.73 1308.8,820 1308.5,820L1272.5,820C1272.25,820 1271.91,819.19 1271.5,819.22L1270,820.5L1270,840L1290,840L1290,939.5C1290,939.81 1288.63,940.92 1289,942L1310,942L1310,1106L1289,1106L1290,1208L1270,1208L1270,1248.5L1271.5,1250L1310,1250L1310,1208L1332,1208L1332,1147L1310,1147L1310,1126L1332,1126L1332,1106L1352,1106L1352,942L1332,942L1332,922L1311.5,922L1310,920.5L1310,902L1332,902L1332,840L1311.5,840L1310,838.5L1310,819ZM1188,902L1168,902L1168,922L1188,922L1188,902ZM660.235,1013.55C660.733,990.302 642.262,971.021 619.012,970.523L335.613,964.451C312.363,963.953 293.083,982.425 292.585,1005.67C292.086,1028.92 310.558,1048.2 333.808,1048.7L617.207,1054.77C640.457,1055.27 659.737,1036.8 660.235,1013.55ZM1208.01,1250C1214.1,1249.98 1220.22,1250 1226.31,1250.04C1226.97,1249.84 1228,1247.78 1228,1247.5L1228,1228L1250,1228C1250.02,1201.02 1249.98,1173.99 1250,1147.01C1242.68,1147.05 1235.32,1146.98 1228,1147.01L1228,1208.02L1208.01,1208.02C1207.97,1221.99 1208.06,1236.03 1208.01,1250ZM1188,1126L1168,1126L1168,1147L1188,1147L1188,1126Z" style="fill:white;"/>
        </g>
        <g transform="matrix(0.480044,0,0,0.480044,8.65161,-312.487)">
            <path d="M1369.62,995.37C1184.65,785.78 857.02,787.23 674.66,998.65C495.55,1206.3 532.73,1494.74 740.54,1665.97C745.48,1670.04 752.85,1673.86 757.01,1678.5C777.14,1700.98 757.4,1739.18 726.63,1727.88C716.7,1724.23 694.03,1705.02 685.13,1697.34C458.36,1501.85 439.56,1155.37 648.5,938.98C846.5,733.92 1175.02,725.56 1382.03,922.48C1600.01,1129.85 1597.35,1473.77 1380.54,1681.02C1370.05,1691.04 1331.06,1725.64 1319.25,1728.73C1286.42,1737.34 1268.61,1694.53 1294.1,1674.58C1297.15,1672.19 1300.88,1670.79 1303.93,1668.41C1515.47,1502.67 1549.24,1198.89 1369.63,995.37L1369.62,995.37Z" style="fill:white;fill-rule:nonzero;"/>
        </g>
        <g transform="matrix(0.480044,0,0,0.480044,8.65161,-312.487)">
            <path d="M1414.5,1314C1414.17,1313.91 1412.73,1312.45 1412.52,1311.98C1411.25,1309.26 1411.41,1288.14 1413.97,1286.46C1427.76,1286.65 1444.03,1284.62 1457.57,1285.94C1459.76,1286.15 1460.21,1285.95 1462.09,1287.42C1467.43,1291.63 1466.27,1314 1458.51,1314L1414.5,1314Z" style="fill:white;fill-rule:nonzero;"/>
        </g>
        <g transform="matrix(0.480044,0,0,0.480044,8.65161,-312.487)">
            <path d="M1038,910C1037.27,911.15 1015.45,911.52 1012.53,910.97C1011.26,910.73 1010.09,910.22 1009.5,909C1008.58,907.12 1008.5,872.76 1008.98,868.47C1009.41,864.63 1011.42,860.73 1015.56,860.05C1021.91,859.01 1038.01,858.29 1038.01,867.49L1038.01,909.99L1038,910Z" style="fill:white;fill-rule:nonzero;"/>
        </g>
        <g transform="matrix(0.480044,0,0,0.480044,8.65161,-312.487)">
            <path d="M634,1313L586.25,1313.25C580.51,1310.8 581.36,1297.03 582.08,1291.55C582.2,1290.64 584.68,1286 585,1286L632.5,1286L634,1287.5L634,1313Z" style="fill:white;fill-rule:nonzero;"/>
        </g>
        <g transform="matrix(0.480044,0,0,0.480044,8.65161,-312.487)">
            <path d="M810.26,970.74C807.46,962.74 788.66,937.37 789.44,930.49C789.96,925.94 805.37,917.12 809.53,917.43C811.79,917.6 815.52,921.75 816.83,923.67C821.16,930.01 829.05,943.95 832.55,950.95C833.47,952.79 835.21,956.59 835.03,958.5C834.74,961.66 818.58,968.23 815.69,971.29L810.25,970.74L810.26,970.74Z" style="fill:white;fill-rule:nonzero;"/>
        </g>
        <g transform="matrix(0.480044,0,0,0.480044,8.65161,-312.487)">
            <path d="M689.91,1101.88C684.14,1103.62 680.68,1121.63 674.57,1121.03L636.73,1098.05C631.57,1093.38 641.23,1078.46 645.73,1076.24C651.27,1073.5 655.67,1077.26 660.67,1079.83C665.67,1082.4 683.57,1092.34 686.96,1095.54C688.66,1097.15 688.98,1099.82 689.91,1101.88Z" style="fill:white;fill-rule:nonzero;"/>
        </g>
        <g transform="matrix(0.480044,0,0,0.480044,8.65161,-312.487)">
            <path d="M1410.76,1501.23C1413.66,1506.07 1408.39,1517.41 1405.05,1521.28C1404.16,1522.31 1398.82,1524.86 1397.53,1524.9C1392.18,1525.04 1383.33,1516.8 1378.53,1513.98C1374.21,1511.43 1357.51,1504.67 1357.97,1499.58C1358.07,1498.51 1367.36,1481.39 1368.1,1480.61C1370.96,1477.63 1372.92,1479.08 1376.05,1480.46C1387.55,1485.53 1399.42,1495.41 1410.76,1501.24L1410.76,1501.23Z" style="fill:white;fill-rule:nonzero;"/>
        </g>
        <g transform="matrix(0.480044,0,0,0.480044,8.65161,-312.487)">
            <path d="M1235.71,918.21C1241.49,916.48 1257.64,925.74 1257.93,931.47C1258.08,934.41 1243.55,959.13 1240.84,963.33C1239.28,965.74 1236,971.57 1233.53,971.64C1231.06,971.71 1211.61,961.06 1211.99,956.59C1215.75,950.73 1231.03,919.62 1235.72,918.21L1235.71,918.21Z" style="fill:white;fill-rule:nonzero;"/>
        </g>
        <g transform="matrix(0.480044,0,0,0.480044,8.65161,-312.487)">
            <path d="M1385.65,1081.63C1386.06,1081.41 1386.38,1080.18 1387.25,1079.69C1391.22,1077.46 1396.09,1073.74 1400.74,1075.74C1405.7,1077.88 1413.65,1091.18 1411.85,1096.33C1410.36,1100.61 1379.53,1115.28 1374.96,1120.49C1373.93,1121.18 1372.88,1121.18 1371.72,1120.86C1368.19,1119.88 1359.46,1103.06 1357.43,1098.92C1358.42,1094.51 1380.8,1084.25 1385.64,1081.64L1385.65,1081.63Z" style="fill:white;fill-rule:nonzero;"/>
        </g>
        <g transform="matrix(0.480044,0,0,0.480044,8.65161,-312.487)">
            <path d="M685.36,1494.65C686.28,1496.34 690.92,1498.04 688.8,1502.81L652.28,1523.77C650.18,1524.21 645.83,1524.5 644.01,1523.49C641.16,1521.92 632.74,1504.03 637.3,1500.28L673.79,1479.2C680.43,1477.55 682.97,1490.26 685.37,1494.65L685.36,1494.65Z" style="fill:white;fill-rule:nonzero;"/>
        </g>
        <g transform="matrix(0.480044,0,0,0.480044,8.65161,-312.487)">
            <path d="M1443.74,1415.74C1441.76,1417.4 1437.16,1416.22 1434.8,1415.7C1424.72,1413.51 1413.41,1408.68 1403.08,1406.42L1400.53,1403.98C1399.32,1396.42 1400.78,1391.22 1409.25,1392.26C1420.44,1393.63 1432.46,1400.13 1443.95,1401.55C1448.77,1403.74 1446.55,1413.39 1443.74,1415.74Z" style="fill:white;fill-rule:nonzero;"/>
        </g>
        <g transform="matrix(0.480044,0,0,0.480044,8.65161,-312.487)">
            <path d="M638.79,1392.27C643.36,1391.81 645.21,1391.95 646.52,1396.97C647.54,1400.86 647.68,1404.2 643.92,1406.42L605.6,1416.77C601.88,1413.85 597.55,1405.64 602.62,1402.12C604.67,1400.69 635.03,1392.65 638.78,1392.27L638.79,1392.27Z" style="fill:white;fill-rule:nonzero;"/>
        </g>
        <g transform="matrix(0.480044,0,0,0.480044,8.65161,-312.487)">
            <path d="M719.65,995.36C722.91,1001.14 747.21,1019.34 746.78,1024.33C746.58,1026.63 742.97,1031.28 740.74,1032.24C734.35,1035.01 730.61,1026.77 726.53,1022.97C719.45,1016.36 709.97,1009.58 706.21,1000.66C706.54,996.68 716.44,990.39 719.65,995.36Z" style="fill:white;fill-rule:nonzero;"/>
        </g>
        <g transform="matrix(0.480044,0,0,0.480044,8.65161,-312.487)">
            <path d="M1121.14,923.86C1118.78,920.17 1129.4,889.74 1129.77,883.27C1132.78,876.67 1145.68,880.01 1145.07,887.45C1141.89,894.09 1137.82,921.45 1133.49,924.98C1130.22,927.65 1124.72,925.1 1121.15,923.85L1121.14,923.86Z" style="fill:white;fill-rule:nonzero;"/>
        </g>
        <g transform="matrix(0.480044,0,0,0.480044,8.65161,-312.487)">
            <path d="M1331.35,1586.65C1334.12,1589.56 1341.54,1593.53 1341.03,1598.46C1340.89,1599.84 1335.07,1606.04 1333.97,1606.54C1331.04,1607.88 1326.96,1603.52 1324.97,1601.53C1318.84,1595.39 1307.69,1584.2 1302.99,1577.49C1299.55,1572.58 1305.1,1566.07 1309.5,1566.07C1313.9,1566.07 1327.68,1582.8 1331.35,1586.65Z" style="fill:white;fill-rule:nonzero;"/>
        </g>
        <g transform="matrix(0.480044,0,0,0.480044,8.65161,-312.487)">
            <path d="M1336.71,995.3C1339.42,997.42 1340.9,1001.33 1339.04,1004.54C1333.95,1013.32 1320.16,1020.71 1314.54,1029.98C1309.42,1037.81 1298.51,1026.27 1300.46,1022.01C1301.19,1020.41 1316.8,1005.45 1319.48,1002.96C1321.22,1001.34 1323.26,1000.12 1325.06,998.54C1326.28,997.47 1327.06,995.08 1328.01,994.5C1330.01,993.28 1334.85,993.83 1336.72,995.3L1336.71,995.3Z" style="fill:white;fill-rule:nonzero;"/>
        </g>
        <g transform="matrix(0.480044,0,0,0.480044,8.65161,-312.487)">
            <path d="M736.73,1566.13C740.49,1565.61 745.8,1572.22 745.44,1576.02L715.53,1606.98C713.01,1607.05 703.87,1599.7 706.75,1596.27C711.69,1591.63 731.69,1566.82 736.74,1566.12L736.73,1566.13Z" style="fill:white;fill-rule:nonzero;"/>
        </g>
        <g transform="matrix(0.480044,0,0,0.480044,8.65161,-312.487)">
            <path d="M604.7,1183.18C606.25,1182.71 607.71,1182.92 609.26,1183.22C616.06,1184.55 626.43,1189.47 633.96,1191.53C638.4,1192.74 643.18,1191.16 646.44,1195.08C648.74,1197.84 647.04,1201.99 645.23,1204.73C642.54,1208.78 640.07,1207.46 635.79,1206.7C631.23,1205.89 605.13,1198.79 602.59,1196.91C599.03,1194.28 600.59,1184.43 604.7,1183.18Z" style="fill:white;fill-rule:nonzero;"/>
        </g>
        <g transform="matrix(0.480044,0,0,0.480044,8.65161,-312.487)">
            <path d="M915.75,881.27C916.63,882.1 917.49,885.21 917.94,886.57C919.54,891.37 926.29,916.92 926.08,920.52C926.03,921.4 925.95,922.24 925.52,923.03C924.3,925.42 915.56,927.19 913.47,925.04C910.58,922.07 901.3,886.54 903.22,883.22C906.38,881.2 912.53,878.24 915.75,881.28L915.75,881.27Z" style="fill:white;fill-rule:nonzero;"/>
        </g>
        <g transform="matrix(0.480044,0,0,0.480044,8.65161,-312.487)">
            <path d="M1438.79,1183.21C1443.57,1182.02 1447.09,1189.61 1447.06,1193.55C1447.04,1197.03 1443.97,1197.78 1441.21,1198.72C1434.01,1201.17 1415.49,1206.25 1408.37,1206.91C1405.72,1207.16 1403.04,1207.58 1401.54,1204.95C1400.14,1202.5 1398.83,1196 1401.57,1194.07C1403.89,1192.44 1422.41,1188.76 1426.99,1187.49C1430.78,1186.44 1435.51,1184.02 1438.79,1183.2L1438.79,1183.21Z" style="fill:white;fill-rule:nonzero;"/>
        </g>
    </g>
    <path d="M910.434,538.032C898.403,538.032 888.634,528.264 888.634,516.232C888.634,504.201 898.403,494.432 910.434,494.432L910.975,494.432C923.007,494.432 932.775,504.201 932.775,516.232C932.775,528.264 923.007,538.032 910.975,538.032L910.434,538.032Z" style="fill:white;"/>
    <path d="M901.667,473.326L903.026,467.074L905.685,461.846L911.133,455.825L917.497,451.597C920.336,450.06 926.876,446.999 926.876,446.999C926.876,446.999 925.936,447.742 925.556,448.121L933.515,442.853L942.342,440.903L954.355,442.303C957.871,443.27 961.634,444.781 965.207,446.836C967.126,447.94 968.989,449.196 970.744,450.594L976.086,455.696L982.084,465.163L984.756,475.29L984.237,486.188L982.201,492.624L978.285,499.197L972.822,504.716L965.499,509.13C960.401,511.396 953.405,512.385 951.428,512.63C951.351,512.642 951.274,512.654 951.197,512.666C949.874,517.062 947.963,522.041 945.269,527.727C935.622,548.094 939.638,550.557 923.687,566.508C918.959,571.236 888.044,586.49 885.981,587.178C856.568,596.982 843.022,594.427 841.984,594.206C836.118,593.902 830.611,591.24 826.725,586.808C822.688,582.204 820.773,576.114 821.449,570.028L824.645,558.816C826.446,554.967 829.012,551.195 832.209,547.535C836.43,542.702 842.389,538.017 846.931,532.34C858.447,517.944 860.485,519.959 868.828,510.332C871.024,507.8 877.446,496.816 882.414,489.512C886.381,483.681 890.192,479.391 892.184,477.762L899.525,473.652L901.667,473.326ZM902.892,515.845C902.902,515.821 902.912,515.796 902.922,515.772C898.739,514.996 894.74,512.991 891.506,509.758C894.701,512.953 898.46,515.121 902.892,515.845ZM952.036,482.268C953.775,481.303 955.206,480.132 956.386,478.951C955.392,479.945 953.834,481.094 952.036,482.268Z" style="fill:white;"/>
</svg>
